# xmcd CD database file
#
# Track frame offsets:
#	150
#	12710
#	28583
#	45229
#	60570
#	73287
#	85562
#	97846
#	112891
#	123217
#	135380
#	148460
#	164390
#	177387
#	190521
#	201092
#	214608
#	229367
#	242627
#	255514
#
# Disc length: 3677 seconds
#
# Revision: 6
# Processed by: cddbd v1.5.2PL0 Copyright (c) Steve Scherf et al.
# Submitted via: CDex 1.77
#
DISCID=100e5b14
DTITLE=VV.AA. - Northern Soul 70's Floorshakers
DYEAR=2005
DGENRE=Soul
TTITLE0=CONTINENTAL FOUR - Heaven Must Have Sent You
TTITLE1=LARRY SAUNDERS - On The Real Side
TTITLE2=(BALTIMORE) FIRST CLASS - Filled With Desire
TTITLE3=ELOISE LAWS - Love Factory
TTITLE4=THE SILENT MAJORITY - Something New About You
TTITLE5=HONEY CONE - It's Better To have Loved And Lost
TTITLE6=WARLOCK - You've Been My Rock
TTITLE7=THE SOUL TRAIN GANG - Country Girl
TTITLE8=WILLIE and THE MIGHTY MAGNIFICIENTS - Check It Baby
TTITLE9=FRANKIE 'LOVE MAN' CROCKER - Ton Of Dynamite
TTITLE10=BARBARA JEAN ENGLISH - I'm Living A Lie
TTITLE11=FLAMING EMBER - Westbound No. 9
TTITLE12=THE POLITICIANS - Love Machine
TTITLE13=FREDA PAYNE - Band Of Gold
TTITLE14=EIGHTH DAY - Eeny-Meeny-Miny-Mo
TTITLE15=TYRONE EDWARDS - Can't Get Enough Of You
TTITLE16=THE WHISPERS - I've Got A Feeling
TTITLE17=CHUCK JACKSON - I've Got The Need
TTITLE18=DANNY WOODS - Rollercoaster
TTITLE19=THE MOMENTS - Nine Times
EXTD=YEAR: 2005
EXTT0=
EXTT1=
EXTT2=
EXTT3=
EXTT4=
EXTT5=
EXTT6=
EXTT7=
EXTT8=
EXTT9=
EXTT10=
EXTT11=
EXTT12=
EXTT13=
EXTT14=
EXTT15=
EXTT16=
EXTT17=
EXTT18=
EXTT19=
PLAYORDER=
